<?xml version="1.0" encoding="iso-8859-1"?>
<!-- Generator: Adobe Illustrator 19.0.0, SVG Export Plug-In . SVG Version: 6.00 Build 0)  -->
<svg version="1.1" id="Layer_1" xmlns="http://www.w3.org/2000/svg" xmlns:xlink="http://www.w3.org/1999/xlink" x="0px" y="0px"
	 viewBox="0 0 512 512" style="enable-background:new 0 0 512 512;" xml:space="preserve">
<g>
	<path style="fill:#C7CFE2;" d="M503.129,291.485h-26.614c-5.804,0-10.947,12.562-14.178,31.96
		c-2.098,12.592-13.095,21.779-25.856,22.134l-288.201,8.005v35.485l288.201,8.005c12.761,0.355,23.758,9.541,25.856,22.134
		c3.232,19.398,8.374,31.96,14.178,31.96h26.614c4.899,0,8.871-3.972,8.871-8.871v-141.94
		C512,295.457,508.028,291.485,503.129,291.485z"/>
	<rect x="148.283" y="300.358" style="fill:#C7CFE2;" width="53.227" height="44.356"/>
	<path style="fill:#C7CFE2;" d="M0.112,89.861L14.51,247.934c0.416,4.569,4.247,8.066,8.835,8.066h303.162
		c4.589,0,8.42-3.5,8.835-8.069l14.343-158.079c1.414-15.583-10.857-29.019-26.505-29.019H26.616
		C10.965,60.833-1.308,74.274,0.112,89.861z"/>
</g>
<path style="fill:#E4EAF6;" d="M290.253,309.227H59.601c-9.799,0-17.742-7.943-17.742-17.742V114.06
	c0-9.799,7.943-17.742,17.742-17.742h230.652c9.799,0,17.742,7.943,17.742,17.742v177.425
	C307.996,301.284,300.052,309.227,290.253,309.227z"/>
<path style="fill:#5B5D6E;" d="M245.863,256H103.992c-4.899,0-8.871-3.972-8.871-8.871v-88.712c0-4.899,3.972-8.871,8.871-8.871
	h141.87c4.899,0,8.871,3.972,8.871,8.871v88.712C254.734,252.029,250.762,256,245.863,256z"/>
<circle style="fill:#464655;" cx="174.93" cy="202.775" r="44.356"/>
<path style="fill:#E4EAF6;" d="M476.515,291.485c-9.798,0-17.742,35.746-17.742,79.841c0,44.094,7.944,79.841,17.742,79.841h26.614
	c4.899,0,8.871-3.972,8.871-8.871v-141.94c0-4.899-3.972-8.871-8.871-8.871H476.515z"/>
<circle style="fill:#5B5D6E;" cx="174.93" cy="202.775" r="26.614"/>
<circle style="fill:#FFFFFF;" cx="174.93" cy="202.775" r="8.871"/>
<circle style="fill:#D7DEED;" cx="201.51" cy="176.161" r="17.742"/>
<g>
	<path style="fill:#FFFFFF;" d="M199.86,193.735c-2.687-7.405-8.519-13.226-15.927-15.905
		C184.734,186.283,191.403,192.944,199.86,193.735z"/>
	<path style="fill:#FFFFFF;" d="M201.507,158.416c-3.785,0-7.276,1.205-10.155,3.225c11.243,4.494,20.183,13.418,24.691,24.652
		c2.01-2.876,3.207-6.36,3.207-10.134C219.249,166.359,211.305,158.416,201.507,158.416z"/>
</g>
<path style="fill:#E4EAF6;" d="M174.893,415.682L174.893,415.682c-19.598,0-35.485-15.887-35.485-35.485v-35.485
	c0-4.899,3.972-8.871,8.871-8.871h53.227c4.899,0,8.871,3.972,8.871,8.871v35.485C210.378,399.795,194.491,415.682,174.893,415.682z
	"/>
<g>
</g>
<g>
</g>
<g>
</g>
<g>
</g>
<g>
</g>
<g>
</g>
<g>
</g>
<g>
</g>
<g>
</g>
<g>
</g>
<g>
</g>
<g>
</g>
<g>
</g>
<g>
</g>
<g>
</g>
</svg>
